# xmcd
#
# Track frame offsets: 
#        150
#        20142
#        58113
#        82209
#        103589
#        139369
#
# Disc length: 2252 seconds
#
# Revision: 0
# Processed by: cddbd v1.5.2PL0 Copyright (c) Steve Scherf et al.
# Submitted via: ExactAudioCopy v0.95b4
#
DISCID=5708ca06
DTITLE=Robben Ford - Live Brescia 09071999 - CD2
DYEAR=1999
DGENRE=Blues
TTITLE0=When I Cry Today
TTITLE1=Blues Jam
TTITLE2=Don't Lose Your Faith In Me
TTITLE3=Deaf Dumb And Blind
TTITLE4=Lovin' Cup
TTITLE5=Supernatural
EXTD=
EXTT0=
EXTT1=
EXTT2=
EXTT3=
EXTT4=
EXTT5=
PLAYORDER=
